<mxfile host="app.diagrams.net" modified="2021-05-25T05:49:47.732Z" agent="5.0 (Windows NT 10.0; Win64; x64) AppleWebKit/537.36 (KHTML, like Gecko) Chrome/90.0.4430.212 Safari/537.36" etag="y6IE4RWLmyabopiuU03V" version="14.7.0" type="github">
  <diagram id="HkwJ5wBVBo28_0Q30BGw" name="Page-1">
    <mxGraphModel dx="1865" dy="676" grid="1" gridSize="10" guides="1" tooltips="1" connect="1" arrows="1" fold="1" page="1" pageScale="1" pageWidth="827" pageHeight="1169" math="0" shadow="0">
      <root>
        <mxCell id="0" />
        <mxCell id="1" parent="0" />
        <mxCell id="n510I995kuuaHjcIF-QW-7" value="" style="rounded=0;whiteSpace=wrap;html=1;strokeColor=#d6b656;fillColor=#fff2cc;" vertex="1" parent="1">
          <mxGeometry x="-110" y="20" width="1050" height="300" as="geometry" />
        </mxCell>
        <mxCell id="n510I995kuuaHjcIF-QW-10" value="依頼を作成" style="swimlane;" vertex="1" parent="1">
          <mxGeometry x="-90" y="110" width="200" height="80" as="geometry" />
        </mxCell>
        <mxCell id="n510I995kuuaHjcIF-QW-14" value="①元ファイルをアップロード&lt;br&gt;&lt;div style=&quot;text-align: left&quot;&gt;&lt;span&gt;②実行日付を選択&lt;/span&gt;&lt;/div&gt;" style="text;html=1;align=center;verticalAlign=middle;resizable=0;points=[];autosize=1;strokeColor=none;" vertex="1" parent="n510I995kuuaHjcIF-QW-10">
          <mxGeometry x="10" y="40" width="170" height="30" as="geometry" />
        </mxCell>
        <mxCell id="n510I995kuuaHjcIF-QW-13" style="edgeStyle=orthogonalEdgeStyle;rounded=0;orthogonalLoop=1;jettySize=auto;html=1;entryX=0.5;entryY=0;entryDx=0;entryDy=0;" edge="1" parent="1" source="n510I995kuuaHjcIF-QW-11" target="n510I995kuuaHjcIF-QW-10">
          <mxGeometry relative="1" as="geometry" />
        </mxCell>
        <mxCell id="n510I995kuuaHjcIF-QW-11" value="" style="ellipse;whiteSpace=wrap;html=1;aspect=fixed;fillColor=#000000;" vertex="1" parent="1">
          <mxGeometry y="50" width="20" height="20" as="geometry" />
        </mxCell>
        <mxCell id="n510I995kuuaHjcIF-QW-15" value="" style="rounded=0;whiteSpace=wrap;html=1;strokeColor=#82b366;fillColor=#d5e8d4;" vertex="1" parent="1">
          <mxGeometry x="-110" y="330" width="1040" height="340" as="geometry" />
        </mxCell>
      </root>
    </mxGraphModel>
  </diagram>
</mxfile>
